<svg version="1.0" xmlns="http://www.w3.org/2000/svg" width="417.333" height="417.333" viewBox="0 0 313 313"><path d="M24 26.6c-4.5 2-6.8 4.1-9.1 8.6-1.8 3.6-1.9 7.9-1.9 121.3 0 116 0 117.6 2 121.5 1.1 2.2 3.9 5.2 6.2 6.7l4.2 2.8h262.4l4.3-3c8.6-6.1 7.9 3.6 7.9-115.3 0-103.6 0-105.3-2-109.2-1.1-2.2-3.9-5.2-6.2-6.7l-4.2-2.8-88-.5-88-.5-5.2-7.9c-6-9-9.8-13.2-13.6-15.2-4.1-2.1-63.8-2-68.8.2zm71.6 21.6c5.4 7.9 7.9 10.6 11.3 12.5l4.4 2.3h173.6l1.5 2.2c1.1 1.5 1.6 4.5 1.6 9.3v7H25V62c0-16.1.3-20 1.6-21.8C28.1 38 28.2 38 58.4 38h30.4l6.8 10.2zM286 96c2 2 2 3.3 2 88.7 0 79.2-.1 86.8-1.7 88.5-1.5 1.7-6.9 1.8-129.6 1.8-117.7 0-128.2-.1-129.9-1.7-1.7-1.5-1.8-5.6-1.8-88.5C25 99.3 25 98 27 96s3.3-2 129.5-2S284 94 286 96z"/></svg>