<svg version="1.0" xmlns="http://www.w3.org/2000/svg" width="417.333" height="417.333" viewBox="0 0 313 313"><path d="M23.4 26.9c-2.3 1-5.4 3.6-7 5.7l-2.9 3.7-.3 22.4-.3 22.3H300v-8.5c0-10.4-2-15.2-8.2-19.2l-4.2-2.8-87.8-.3L112 50l-5.1-7.8c-6-9-10.3-13.8-14.1-15.8-2.2-1.1-8.9-1.4-34-1.4-28.4 0-31.7.2-35.4 1.9zm-8.8 68.9c-1.5 1.7-1.6 8.9-1.4 91.4l.3 89.5 2.9 3.7c1.6 2.1 4.7 4.7 7 5.7 3.9 1.8 9.2 1.9 133.1 1.9s129.2-.1 133.1-1.9 8.4-6.5 9.7-10.4c.4-1 .7-41.5.7-89.9 0-81-.1-88.2-1.6-89.9-1.6-1.8-6.7-1.9-141.9-1.9-135 0-140.3.1-141.9 1.8z"/></svg>